# xmcd CD database file
#
# Track frame offsets:
#	150
#	34940
#	62311
#	84275
#	114159
#	139002
#	166842
#	199171
#	229530
#	252640
#
# Disc length: 3621 seconds
#
# Revision: 0
# Processed by: cddbd v1.5.1PL0 Copyright (c) Steve Scherf et al.
# Submitted via: CDex 1.51
#
DISCID=770e230a
DTITLE=Pierre-Stéphane_Michel TRIO - Bayahibe
DYEAR=2004
DGENRE=Jazz
TTITLE0=Bayahibe
TTITLE1=Piccolo Mondo
TTITLE2=Fleur Bleue
TTITLE3=Lundi Matin
TTITLE4=El Pacha
TTITLE5=Angélus
TTITLE6=Lulu
TTITLE7=Cléo et Césarine
TTITLE8=Grande Anse
TTITLE9=Barbarie
EXTD=YEAR: 2004
EXTT0=
EXTT1=
EXTT2=
EXTT3=
EXTT4=
EXTT5=
EXTT6=
EXTT7=
EXTT8=
EXTT9=
PLAYORDER=
